<svg width="25" height="25" viewBox="0 0 25 25" fill="none" xmlns="http://www.w3.org/2000/svg">
<path d="M17.7726 2.29279H7.77264C5.01122 2.29279 2.77264 4.53136 2.77264 7.29279V17.2928C2.77264 20.0542 5.01122 22.2928 7.77264 22.2928H17.7726C20.5341 22.2928 22.7726 20.0542 22.7726 17.2928V7.29279C22.7726 4.53136 20.5341 2.29279 17.7726 2.29279Z" fill="#1E1E1E"/>
<path d="M16.7726 11.6628C16.8961 12.495 16.7539 13.345 16.3664 14.0918C15.9789 14.8386 15.3658 15.4442 14.6143 15.8225C13.8627 16.2007 13.0111 16.3324 12.1804 16.1987C11.3498 16.065 10.5824 15.6729 9.98748 15.0779C9.39256 14.483 9.00037 13.7157 8.86671 12.885C8.73304 12.0543 8.86471 11.2027 9.24297 10.4512C9.62123 9.69964 10.2268 9.08652 10.9736 8.69902C11.7204 8.31152 12.5704 8.16937 13.4026 8.29278C14.2516 8.41867 15.0375 8.81425 15.6443 9.42109C16.2512 10.0279 16.6468 10.8139 16.7726 11.6628Z" fill="white"/>
<path d="M18.2726 6.79279H18.2826" stroke="white" stroke-width="2" stroke-linecap="round" stroke-linejoin="round"/>
</svg>
