<svg width="878" height="878" viewBox="0 0 878 878" fill="none" xmlns="http://www.w3.org/2000/svg">
<g clip-path="url(#clip0_44_11)">
<path d="M652.861 417.344C649.756 427.723 649.225 432.299 639.5 441.86C631.953 449.33 623.348 455.649 613.963 460.615C604.067 465.892 593.245 469.208 582.092 470.381C570.045 471.61 557.878 469.971 546.584 465.6C532.669 460.029 520.123 451.512 509.81 440.634C498.917 430.36 490.433 417.802 484.968 403.86C480.684 392.503 479.076 380.31 480.269 368.23C481.436 357.222 484.636 346.526 489.707 336.687C494.3 327.763 500.209 319.581 507.236 312.416C513.726 306.03 521.576 301.197 530.2 298.278C538.531 295.319 547.305 293.799 556.146 293.784C564.454 293.714 572.723 294.926 580.662 297.379C587.46 299.344 593.758 302.743 599.13 307.349L594.227 312.293C588.913 308.275 582.88 305.307 576.453 303.549C569.577 301.557 562.446 300.58 555.288 300.648C548.152 300.666 541.069 301.867 534.326 304.203C527.817 306.457 521.897 310.144 517.002 314.99C509.549 322.165 504.837 331.718 503.681 341.998C502.776 353.537 505.111 365.098 510.423 375.381C517.499 389.304 526.895 401.919 538.208 412.686C549.055 424.035 561.805 433.397 575.881 440.348C586.375 445.621 598.07 448.044 609.795 447.376C619.496 446.715 628.635 442.581 635.537 435.731C639.313 432.159 642.268 427.809 644.199 422.983C645.683 419.074 646.337 414.9 646.119 410.725M599.13 307.39C594.232 305.317 589.177 303.636 584.012 302.364C579.313 301.383 574.533 300.607 569.63 299.994C564.726 299.381 559.21 298.605 553.285 297.706L554.389 270.698L558.679 266.366L599.13 307.39Z" fill="#F4F4F1" fill-opacity="0.3"/>
<path d="M719.136 508.135C713.184 514.367 705.85 519.112 697.726 521.987C690.597 524.498 682.9 524.923 675.539 523.212C668.083 521.439 661.292 517.569 655.967 512.058C653.256 509.541 651.081 506.503 649.571 503.126C648.062 499.749 647.249 496.102 647.182 492.404C647.068 489.013 647.659 485.635 648.918 482.484C650.177 479.333 652.076 476.478 654.496 474.099C658.664 469.851 664.045 466.996 669.9 465.927C672.988 465.708 676.087 466.156 678.986 467.239C681.886 468.322 684.52 470.015 686.709 472.204C688.898 474.393 690.591 477.026 691.674 479.926C692.757 482.826 693.204 485.925 692.986 489.013C692.692 495.034 690.19 500.736 685.958 505.03C683.83 507.101 681.39 508.825 678.726 510.137C675.941 511.583 672.971 512.641 669.9 513.283C667.228 513.935 664.471 514.17 661.728 513.978C659.692 513.927 657.739 513.16 656.212 511.813L660.911 507.154C664.387 510.697 668.561 513.48 673.169 515.326C677.475 517.038 682.113 517.75 686.734 517.41C691.656 516.99 696.447 515.601 700.831 513.324C705.903 510.748 710.514 507.352 714.478 503.273C717.574 500.549 719.865 497.031 721.104 493.098C722.342 489.166 722.482 484.969 721.506 480.963C718.545 470.91 713.428 461.623 706.511 453.75C697.348 442.599 687.625 431.921 677.377 421.757L612.9 357.689L636.354 334.235L713.048 410.929C720.931 418.824 726.863 428.45 730.373 439.041C730.373 439.572 730.741 440.103 730.904 440.675C733.26 447.911 734.754 455.399 735.358 462.985C736.004 470.855 735.13 478.776 732.784 486.316C730.078 494.591 725.393 502.081 719.136 508.135ZM588.384 392.093L583.563 387.271L655.068 315.766L659.889 320.547L588.384 392.093Z" fill="#F4F4F1" fill-opacity="0.3"/>
<path d="M218.724 465.804C221.829 455.426 222.36 450.849 232.085 441.288C239.632 433.819 248.237 427.499 257.622 422.533C267.518 417.256 278.34 413.94 289.493 412.768C301.54 411.559 313.702 413.196 325.001 417.548C338.843 423.145 351.316 431.66 361.57 442.514C372.464 452.788 380.947 465.347 386.413 479.288C390.681 490.621 392.289 502.783 391.112 514.836C389.939 525.83 386.739 536.512 381.673 546.339C377.081 555.263 371.171 563.445 364.144 570.61C357.751 577.102 349.97 582.062 341.385 585.115C333.054 588.075 324.28 589.595 315.439 589.61C307.131 589.68 298.862 588.467 290.923 586.014C284.12 584.063 277.819 580.662 272.455 576.044L277.358 571.1C282.679 575.118 288.708 578.098 295.132 579.885C302.014 581.847 309.142 582.81 316.297 582.745C323.433 582.728 330.516 581.527 337.259 579.191C343.775 576.951 349.698 573.263 354.583 568.404C362.018 561.152 366.674 551.522 367.74 541.191C368.645 529.653 366.31 518.091 360.998 507.808C353.931 493.892 344.534 481.289 333.213 470.544C322.378 459.171 309.626 449.794 295.54 442.841C285.046 437.569 273.352 435.145 261.627 435.813C251.925 436.474 242.787 440.609 235.885 447.458C232.098 451.037 229.141 455.403 227.223 460.247C225.73 464.153 225.076 468.33 225.302 472.505M272.291 575.84C277.206 577.823 282.276 579.394 287.45 580.539C292.149 581.52 296.93 582.296 301.833 582.909C306.736 583.522 312.252 584.298 318.177 585.197L317.074 612.206L312.783 616.537L272.291 575.84Z" fill="#F4F4F1" fill-opacity="0.3"/>
<path d="M152.653 374.931C158.605 368.699 165.939 363.955 174.064 361.08C181.241 358.54 189 358.126 196.407 359.887C203.815 361.648 210.556 365.51 215.823 371.009C218.556 373.515 220.754 376.548 222.285 379.926C223.815 383.303 224.647 386.955 224.73 390.663C224.844 394.054 224.253 397.432 222.994 400.583C221.735 403.734 219.836 406.589 217.416 408.968C213.247 413.216 207.867 416.07 202.012 417.14C198.924 417.358 195.825 416.911 192.925 415.828C190.025 414.745 187.392 413.052 185.203 410.863C183.014 408.674 181.321 406.04 180.238 403.14C179.155 400.241 178.708 397.142 178.926 394.054C179.22 388.032 181.722 382.33 185.954 378.037C188.081 375.965 190.522 374.241 193.186 372.929C195.971 371.484 198.941 370.425 202.012 369.783C204.687 369.151 207.441 368.917 210.184 369.089C212.22 369.139 214.173 369.906 215.7 371.254L210.878 375.912C207.4 372.372 203.226 369.59 198.62 367.74C194.314 366.029 189.676 365.316 185.055 365.656C180.133 366.077 175.342 367.465 170.958 369.742C165.887 372.318 161.276 375.715 157.311 379.794C154.216 382.517 151.924 386.036 150.686 389.968C149.447 393.901 149.308 398.097 150.283 402.103C153.234 412.161 158.353 421.449 165.279 429.316C174.441 440.468 184.165 451.146 194.412 461.31L258.562 525.419L235.108 548.873L158.578 472.137C150.696 464.257 144.764 454.645 141.253 444.067C141.253 443.495 140.885 442.963 140.722 442.391C138.366 435.156 136.871 427.667 136.268 420.082C135.62 412.225 136.494 404.317 138.842 396.792C141.593 388.487 146.335 380.982 152.653 374.931ZM283.405 490.974L288.227 495.795L216.721 567.341L211.9 562.52L283.405 490.974Z" fill="#F4F4F1" fill-opacity="0.3"/>
<path d="M464.905 658.623C454.527 655.476 449.951 654.945 440.389 645.261C432.929 637.706 426.611 629.103 421.635 619.724C416.357 609.828 413.041 599.006 411.869 587.853C410.654 575.806 412.292 563.642 416.65 552.346C422.22 538.43 430.737 525.885 441.615 515.572C451.885 504.673 464.445 496.188 478.389 490.729C489.76 486.442 501.966 484.834 514.06 486.03C525.062 487.164 535.75 490.366 545.563 495.469C554.485 500.047 562.667 505.943 569.834 512.957C576.317 519.357 581.275 527.136 584.339 535.716C587.302 544.06 588.822 552.848 588.834 561.703C588.911 570.011 587.698 578.282 585.238 586.219C583.281 593.032 579.881 599.345 575.268 604.728L570.324 599.784C574.332 594.472 577.311 588.458 579.109 582.051C581.068 575.168 582.031 568.041 581.969 560.885C581.952 553.75 580.75 546.667 578.414 539.924C576.185 533.403 572.496 527.477 567.627 522.6C560.452 515.147 550.899 510.435 540.619 509.279C529.084 508.357 517.522 510.678 507.236 515.98C493.32 523.064 480.717 532.475 469.972 543.806C458.59 554.633 449.212 567.387 442.269 581.479C436.993 591.972 434.569 603.667 435.241 615.393C435.901 625.082 440.036 634.208 446.886 641.094C450.453 644.905 454.821 647.877 459.675 649.797C463.587 651.269 467.759 651.923 471.933 651.717M575.268 604.728C577.245 599.812 578.817 594.742 579.967 589.569C580.948 584.87 581.724 580.09 582.337 575.186C582.95 570.283 583.726 564.767 584.625 558.597L611.634 559.7L615.965 564.032L575.268 604.728Z" fill="#F4F4F1" fill-opacity="0.3"/>
<path d="M374.114 724.652C367.884 718.715 363.139 711.394 360.263 703.283C357.718 696.105 357.301 688.346 359.062 680.937C360.824 673.529 364.689 666.787 370.192 661.524C372.7 658.8 375.736 656.613 379.114 655.096C382.492 653.579 386.143 652.763 389.845 652.698C393.24 652.589 396.619 653.187 399.77 654.453C402.922 655.719 405.775 657.626 408.151 660.053C412.412 664.212 415.268 669.597 416.323 675.457C416.722 678.698 416.299 681.988 415.092 685.023C413.886 688.058 411.934 690.74 409.417 692.822C407.305 694.951 404.735 696.569 401.902 697.553C399.07 698.537 396.05 698.862 393.073 698.502C387.052 698.208 381.35 695.706 377.056 691.474C374.985 689.361 373.261 686.934 371.949 684.283C370.516 681.492 369.458 678.525 368.803 675.457C368.173 672.782 367.939 670.028 368.108 667.285C368.158 665.261 368.925 663.32 370.273 661.81L374.972 666.509C371.453 669.926 368.672 674.028 366.8 678.562C365.095 682.87 364.382 687.507 364.717 692.128C365.142 697.062 366.53 701.865 368.803 706.265C371.37 711.33 374.768 715.929 378.854 719.872C381.572 722.975 385.09 725.271 389.025 726.51C392.959 727.75 397.158 727.884 401.164 726.9C411.219 723.966 420.509 718.861 428.376 711.945C439.537 702.779 450.216 693.041 460.37 682.771L524.479 618.662L547.933 642.074L471.32 718.728C463.431 726.607 453.822 732.551 443.249 736.093L441.574 736.624C434.333 738.961 426.847 740.455 419.265 741.078C411.405 741.732 403.493 740.844 395.974 738.463C387.661 735.73 380.152 730.986 374.114 724.652ZM490.157 593.9L494.978 589.079L566.524 660.625L561.703 665.405L490.157 593.9Z" fill="#F4F4F1" fill-opacity="0.3"/>
<path d="M406.68 224.444C417.058 227.59 421.634 228.121 431.196 237.805C438.656 245.361 444.974 253.964 449.951 263.343C455.222 273.241 458.538 284.061 459.716 295.214C460.931 307.261 459.293 319.424 454.935 330.721C449.375 344.642 440.857 357.19 429.97 367.495C419.7 378.393 407.14 386.878 393.196 392.338C381.825 396.625 369.619 398.233 357.525 397.037C346.523 395.903 335.835 392.7 326.022 387.598C317.092 383.033 308.908 377.136 301.751 370.11C295.351 363.673 290.478 355.882 287.491 347.31C284.532 338.979 283.012 330.205 282.996 321.364C282.921 313.055 284.134 304.785 286.592 296.848C288.549 290.034 291.949 283.721 296.562 278.338L301.506 283.282C297.488 288.603 294.508 294.633 292.721 301.057C290.76 307.925 289.797 315.039 289.861 322.181C289.879 329.317 291.08 336.4 293.416 343.142C296.234 351.265 301.266 358.438 307.945 363.853C314.623 369.268 322.681 372.709 331.211 373.787C342.747 374.729 354.315 372.407 364.594 367.086C378.52 359.966 391.123 350.513 401.858 339.138C413.24 328.311 422.618 315.557 429.561 301.465C434.837 290.972 437.261 279.277 436.589 267.551C435.948 257.833 431.812 248.675 424.944 241.769C421.394 237.899 417.025 234.869 412.155 232.902C408.244 231.429 404.071 230.776 399.897 230.982M296.562 278.134C294.579 283.062 293.007 288.146 291.863 293.334C290.882 297.992 290.106 302.773 289.493 307.676C288.88 312.579 288.104 318.095 287.205 324.265L260.197 323.162L255.865 318.708L296.562 278.134Z" fill="#F4F4F1" fill-opacity="0.3"/>
<path d="M497.471 158.414C503.706 164.348 508.452 171.67 511.322 179.784C513.864 186.955 514.279 194.708 512.517 202.109C510.756 209.51 506.893 216.245 501.393 221.502C498.885 224.226 495.849 226.413 492.471 227.93C489.093 229.447 485.442 230.263 481.74 230.328C478.345 230.437 474.966 229.839 471.814 228.573C468.663 227.307 465.81 225.4 463.434 222.973C459.173 218.814 456.316 213.429 455.262 207.569C454.863 204.327 455.286 201.037 456.493 198.002C457.699 194.967 459.651 192.285 462.168 190.203C464.28 188.075 466.85 186.457 469.683 185.473C472.515 184.488 475.535 184.164 478.512 184.524C484.496 184.858 490.15 187.373 494.406 191.593C496.478 193.705 498.201 196.132 499.514 198.784C500.946 201.575 502.004 204.542 502.66 207.61C503.288 210.285 503.522 213.038 503.355 215.782C503.305 217.806 502.537 219.746 501.189 221.257L496.449 216.558C499.969 213.141 502.75 209.039 504.621 204.504C506.327 200.197 507.039 195.56 506.705 190.939C506.279 186.005 504.891 181.202 502.619 176.801C500.044 171.835 496.676 167.323 492.649 163.44C489.931 160.337 486.413 158.041 482.479 156.802C478.544 155.562 474.345 155.427 470.34 156.412C460.284 159.346 450.994 164.451 443.127 171.367C431.974 180.427 421.295 190.055 411.133 200.214L347.024 264.446L323.57 241.074L400.428 164.339C408.283 156.525 417.833 150.625 428.336 147.096L430.011 146.565C437.253 144.242 444.739 142.761 452.32 142.152C460.177 141.483 468.089 142.358 475.611 144.726C483.911 147.424 491.419 152.125 497.471 158.414ZM381.428 289.166L376.607 294.192L305.061 222.524L309.882 217.743L381.428 289.166Z" fill="#F4F4F1" fill-opacity="0.3"/>
<path d="M833.013 414.607L857.407 439L867.703 449.297L878 439L469.849 30.8493L459.553 41.1052" fill="#F4F4F1" fill-opacity="0.3"/>
<path d="M517.084 779.323L439 857.407L428.703 867.703L439 878L847.151 469.849L836.854 459.553" fill="#F4F4F1" fill-opacity="0.3"/>
<path d="M10.2967 428.703L0 439L408.151 847.151L418.447 836.854" fill="#F4F4F1" fill-opacity="0.3"/>
<path d="M30.8493 408.151L41.146 418.447L425.108 34.4859H425.067L449.256 10.2967L439 0" fill="#F4F4F1" fill-opacity="0.3"/>
</g>
<defs>
<clipPath id="clip0_44_11">
<rect width="878" height="878" fill="white"/>
</clipPath>
</defs>
</svg>
