<svg width="51" height="51" viewBox="0 0 51 51" fill="none" xmlns="http://www.w3.org/2000/svg">
<path d="M46.2188 14.3438V36.6562C46.2188 37.9243 45.715 39.1404 44.8184 40.0371C43.9217 40.9338 42.7056 41.4375 41.4375 41.4375H9.5625C8.29443 41.4375 7.0783 40.9338 6.18165 40.0371C5.28499 39.1404 4.78125 37.9243 4.78125 36.6562V14.3438M46.2188 14.3438C46.2188 13.0757 45.715 11.8596 44.8184 10.9629C43.9217 10.0662 42.7056 9.5625 41.4375 9.5625H9.5625C8.29443 9.5625 7.0783 10.0662 6.18165 10.9629C5.28499 11.8596 4.78125 13.0757 4.78125 14.3438M46.2188 14.3438V14.8601C46.2188 15.6764 46.0099 16.4792 45.6119 17.1919C45.2139 17.9046 44.64 18.5035 43.945 18.9316L28.0075 28.7385C27.2536 29.2029 26.3855 29.4488 25.5 29.4488C24.6145 29.4488 23.7464 29.2029 22.9925 28.7385L7.055 18.9337C6.35996 18.5056 5.7861 17.9067 5.38808 17.194C4.99007 16.4813 4.78116 15.6786 4.78125 14.8622V14.3438" stroke="black" stroke-width="1.5" stroke-linecap="round" stroke-linejoin="round"/>
</svg>
