<svg version="1.1" id="Livello_1" xmlns="http://www.w3.org/2000/svg" xmlns:xlink="http://www.w3.org/1999/xlink" x="0px" y="0px"
viewBox="0 0 512 512" style="enable-background:new 0 0 512 512;" xml:space="preserve">
<path class="st0" d="M67.12,164.54c14.89-23.4,49.99-56.37,99.97-85.09l7.45,10.63C117.1,135.82,97.96,209.21,117.1,212.4
	c26.6,2.13,53.19,10.63,74.46,30.85c43.6,43.6,43.6,112.74,1.06,157.41c-43.6,42.54-112.74,42.54-155.28,0
	C-29.67,333.64,29.89,216.64,67.12,164.54z M347.73,164.54c14.88-23.4,49.99-56.37,99.97-85.09l7.45,10.63
	c-57.43,45.74-76.57,119.12-57.43,122.31c26.59,2.13,53.17,10.63,74.44,30.85c43.61,43.6,43.61,112.74,1.07,157.41
	c-43.61,42.54-112.74,42.54-155.29,0C250.94,333.64,310.5,216.64,347.73,164.54z"/>
</svg>
