<svg width="25" height="25" viewBox="0 0 25 25" fill="none" xmlns="http://www.w3.org/2000/svg">
<path d="M23.7726 3.29277C22.815 3.96825 21.7548 4.48488 20.6326 4.82277C20.0304 4.13028 19.23 3.63946 18.3397 3.4167C17.4494 3.19393 16.5121 3.24997 15.6547 3.57722C14.7973 3.90448 14.0611 4.48717 13.5456 5.24649C13.0302 6.0058 12.7603 6.90511 12.7726 7.82277V8.82277C11.0153 8.86834 9.27392 8.47858 7.70365 7.68822C6.13339 6.89785 4.78296 5.73141 3.77264 4.29277C3.77264 4.29277 -0.227356 13.2928 8.77264 17.2928C6.71317 18.6907 4.2598 19.3917 1.77264 19.2928C10.7726 24.2928 21.7726 19.2928 21.7726 7.79277C21.7717 7.51422 21.7449 7.23637 21.6926 6.96277C22.7132 5.95626 23.4335 4.68548 23.7726 3.29277Z" fill="#1E1E1E"/>
</svg>
