<svg width="249" height="362" viewBox="0 0 249 362" fill="none" xmlns="http://www.w3.org/2000/svg">
<g clip-path="url(#clip0_46_78)">
<path d="M36.6173 326.661C33.9847 326.654 31.3671 326.263 28.8469 325.503C26.1867 324.691 23.7064 323.378 21.5396 321.635C19.2334 319.713 17.4091 317.278 16.2126 314.524C14.7647 311.12 14.0732 307.441 14.186 303.743C14.0661 300.052 14.758 296.379 16.2126 292.985C17.4578 290.242 19.3159 287.821 21.6438 285.909C23.774 284.182 26.2094 282.87 28.8237 282.041C31.1953 281.29 33.6664 280.9 36.1541 280.883C38.4101 280.867 40.6401 281.366 42.6739 282.342C44.6502 283.262 46.4555 284.511 48.0125 286.037C49.4812 287.484 50.7192 289.147 51.6835 290.97C52.5253 292.511 53.0342 294.211 53.1773 295.961H51.4403C51.2167 294.33 50.682 292.758 49.8653 291.329C49.0123 289.775 47.9353 288.354 46.6691 287.114C45.4135 285.865 43.9573 284.835 42.3612 284.068C40.8301 283.313 39.1468 282.916 37.4395 282.91C34.8737 282.86 32.3711 283.708 30.3639 285.307C28.1952 287.173 26.5908 289.608 25.7317 292.336C24.5278 296.019 23.9637 299.881 24.0641 303.755C23.9662 307.646 24.5582 311.523 25.8128 315.208C26.729 317.972 28.3542 320.448 30.526 322.388C32.338 323.963 34.6562 324.835 37.0574 324.843C38.3493 324.881 39.6341 324.636 40.821 324.125C41.768 323.698 42.6159 323.079 43.3108 322.307C43.9305 321.613 44.4455 320.833 44.8394 319.99C45.21 319.215 45.4995 318.543 45.708 317.964V307.368H54.7407V314.501C53.7768 316.486 52.5626 318.338 51.1276 320.014C49.5034 321.949 47.5118 323.543 45.2679 324.704C42.5926 326.067 39.6189 326.74 36.6173 326.661ZM37.4395 308.132V306.233H59.0602V308.132H37.4395ZM53.1773 295.938C52.659 294.732 52.0432 293.57 51.336 292.464C50.6875 291.468 49.9927 290.483 49.24 289.522C48.4873 288.561 47.6535 287.449 46.727 286.21L51.6603 281.671H53.1773V295.938Z" fill="white"/>
<path d="M65.5916 283.373V281.682H89.3662V283.373H65.5916ZM65.5916 325.792V324.101H89.3662V325.792H65.5916ZM72.9799 325.792V281.682H81.1557V325.792H72.9799Z" fill="white"/>
<path d="M119.811 326.661C115.678 326.722 111.593 325.764 107.918 323.87C104.459 322.052 101.575 319.305 99.5917 315.937C97.4794 312.227 96.4184 308.011 96.5229 303.743C96.4153 299.452 97.5407 295.22 99.7654 291.549C101.859 288.182 104.819 285.438 108.335 283.605C111.899 281.77 115.849 280.813 119.857 280.813C123.866 280.813 127.816 281.77 131.38 283.605C134.896 285.434 137.853 288.178 139.938 291.549C142.172 295.217 143.301 299.45 143.192 303.743C143.302 308.012 142.24 312.229 140.123 315.937C138.137 319.315 135.239 322.064 131.762 323.87C128.068 325.768 123.964 326.727 119.811 326.661ZM119.811 325.097C121.956 325.156 124.073 324.602 125.914 323.499C127.663 322.38 129.098 320.834 130.083 319.006C131.23 316.879 132.039 314.585 132.48 312.208C133.017 309.419 133.277 306.584 133.256 303.743C133.28 300.894 132.984 298.05 132.376 295.266C131.862 292.878 130.979 290.585 129.759 288.469C128.714 286.662 127.263 285.123 125.52 283.975C123.799 282.93 121.824 282.378 119.811 282.378C117.798 282.378 115.823 282.93 114.102 283.975C112.361 285.118 110.916 286.658 109.887 288.469C108.676 290.599 107.801 292.904 107.293 295.301C106.684 298.085 106.389 300.928 106.413 303.778C106.391 306.618 106.651 309.454 107.188 312.243C107.629 314.62 108.438 316.913 109.586 319.041C110.566 320.865 111.992 322.41 113.731 323.534C115.567 324.625 117.677 325.168 119.811 325.097Z" fill="white"/>
<path d="M158.386 326.661C156.249 326.71 154.131 326.258 152.202 325.341C150.513 324.523 149.089 323.247 148.091 321.658C147.093 320.042 146.583 318.172 146.62 316.273C146.585 315.356 146.735 314.442 147.062 313.584C147.388 312.727 147.884 311.944 148.519 311.282C149.097 310.668 149.795 310.181 150.571 309.85C151.346 309.519 152.181 309.352 153.024 309.36C154.497 309.344 155.939 309.789 157.146 310.633C157.729 311.136 158.197 311.758 158.518 312.457C158.838 313.157 159.004 313.917 159.004 314.687C159.004 315.456 158.838 316.216 158.518 316.916C158.197 317.615 157.729 318.237 157.146 318.74C156.042 319.751 154.602 320.316 153.105 320.326C152.372 320.317 151.645 320.192 150.951 319.956C150.208 319.716 149.5 319.381 148.843 318.96C148.264 318.598 147.741 318.154 147.291 317.64C146.942 317.277 146.736 316.8 146.712 316.296H148.357C148.336 317.516 148.569 318.726 149.04 319.851C149.496 320.907 150.185 321.845 151.055 322.596C151.985 323.39 153.064 323.993 154.228 324.368C155.571 324.8 156.975 325.012 158.386 324.993C159.405 325.061 160.424 324.847 161.331 324.375C162.237 323.904 162.997 323.192 163.527 322.318C164.771 320.036 165.502 317.511 165.67 314.918C166.024 311.355 166.19 307.775 166.168 304.195V281.682H174.39V312.347C173.834 313.76 173.139 315.289 172.305 316.922C171.446 318.603 170.397 320.18 169.178 321.623C167.909 323.114 166.364 324.344 164.627 325.248C162.695 326.225 160.551 326.71 158.386 326.661ZM155.792 283.373V281.682H180.875V283.373H155.792Z" fill="white"/>
<path d="M183.677 325.792V324.101H198.384V325.792H183.677ZM187.916 325.792L208.332 280.86H210.648L230.543 325.792H220.989L205.761 290.078L189.919 325.792H187.916ZM195.57 312.081V310.356H222.344V312.035L195.57 312.081ZM213.08 325.792V324.101H234.701V325.792H213.08Z" fill="white"/>
<path d="M185.032 118.283C184.152 121.224 184.001 122.521 181.245 125.231C179.106 127.348 176.668 129.139 174.008 130.546C171.203 132.042 168.136 132.982 164.975 133.314C161.56 133.662 158.112 133.198 154.911 131.959C150.967 130.38 147.412 127.966 144.489 124.883C141.402 121.971 138.997 118.412 137.448 114.461C136.234 111.242 135.778 107.786 136.116 104.363C136.447 101.243 137.354 98.2116 138.791 95.4227C140.093 92.8937 141.768 90.5748 143.759 88.544C145.599 86.7342 147.824 85.3644 150.268 84.5371C152.629 83.6984 155.116 83.2676 157.621 83.2633C159.976 83.2434 162.32 83.5872 164.569 84.2824C166.496 84.8391 168.281 85.8027 169.804 87.108L168.414 88.5092C166.908 87.3703 165.198 86.5292 163.377 86.031C161.428 85.4664 159.407 85.1895 157.378 85.2088C155.356 85.2138 153.348 85.5543 151.437 86.2163C149.593 86.8553 147.915 87.9 146.527 89.2735C144.415 91.307 143.08 94.0146 142.752 96.9282C142.495 100.198 143.157 103.475 144.663 106.389C146.668 110.335 149.331 113.911 152.537 116.962C155.612 120.179 159.225 122.832 163.215 124.802C166.189 126.297 169.503 126.983 172.826 126.794C175.576 126.607 178.166 125.435 180.122 123.494C181.192 122.481 182.03 121.248 182.577 119.881C182.998 118.773 183.183 117.59 183.121 116.406M169.804 87.1196C168.416 86.532 166.983 86.0557 165.519 85.6952C164.187 85.4172 162.832 85.1972 161.443 85.0235C160.053 84.8498 158.49 84.6298 156.811 84.375L157.123 76.7203L158.339 75.4928L169.804 87.1196Z" fill="white"/>
<path d="M203.816 144.014C202.129 145.78 200.05 147.125 197.747 147.94C195.727 148.652 193.546 148.772 191.459 148.287C189.346 147.785 187.421 146.688 185.912 145.126C185.144 144.413 184.527 143.552 184.1 142.595C183.672 141.638 183.441 140.604 183.422 139.556C183.39 138.595 183.558 137.637 183.914 136.744C184.271 135.851 184.81 135.042 185.495 134.368C186.677 133.164 188.202 132.355 189.861 132.052C190.736 131.99 191.615 132.117 192.436 132.423C193.258 132.73 194.005 133.21 194.625 133.831C195.245 134.451 195.725 135.197 196.032 136.019C196.339 136.841 196.466 137.719 196.404 138.595C196.321 140.301 195.612 141.917 194.412 143.134C193.809 143.721 193.118 144.21 192.363 144.582C191.573 144.991 190.732 145.291 189.861 145.473C189.104 145.658 188.323 145.725 187.545 145.67C186.968 145.656 186.414 145.438 185.982 145.056L187.313 143.736C188.299 144.74 189.482 145.529 190.788 146.052C192.008 146.537 193.323 146.739 194.632 146.643C196.027 146.524 197.385 146.13 198.628 145.485C200.065 144.755 201.372 143.792 202.495 142.636C203.373 141.864 204.022 140.867 204.373 139.752C204.724 138.638 204.764 137.449 204.487 136.313C203.648 133.464 202.198 130.832 200.237 128.601C197.64 125.44 194.885 122.414 191.98 119.533L173.706 101.375L180.354 94.7279L202.09 116.464C204.324 118.702 206.006 121.43 207 124.432C207 124.582 207.104 124.733 207.151 124.895C207.818 126.946 208.242 129.068 208.413 131.218C208.596 133.448 208.348 135.693 207.683 137.83C206.917 140.176 205.589 142.298 203.816 144.014ZM166.758 111.126L165.392 109.759L185.657 89.4936L187.024 90.8485L166.758 111.126Z" fill="white"/>
<path d="M61.99 132.017C62.8702 129.075 63.0207 127.778 65.7768 125.069C67.9159 122.952 70.3545 121.161 73.0146 119.753C75.8192 118.258 78.8863 117.318 82.0473 116.986C85.4616 116.643 88.9087 117.107 92.1107 118.34C96.034 119.927 99.5691 122.34 102.475 125.416C105.563 128.328 107.967 131.887 109.516 135.838C110.726 139.05 111.181 142.497 110.848 145.913C110.515 149.029 109.608 152.057 108.173 154.842C106.871 157.371 105.196 159.69 103.205 161.721C101.393 163.561 99.1875 164.966 96.7545 165.832C94.3933 166.67 91.9066 167.101 89.4009 167.106C87.0462 167.125 84.7025 166.782 82.4527 166.087C80.5244 165.533 78.7387 164.57 77.2183 163.261L78.608 161.86C80.116 162.998 81.8249 163.843 83.6455 164.349C85.5959 164.905 87.6161 165.178 89.6441 165.16C91.6665 165.155 93.674 164.815 95.5849 164.153C97.4317 163.518 99.1105 162.473 100.495 161.095C102.602 159.04 103.922 156.311 104.224 153.383C104.48 150.113 103.819 146.836 102.313 143.922C100.31 139.978 97.6467 136.406 94.4384 133.36C91.3675 130.137 87.7533 127.479 83.7613 125.509C80.7871 124.014 77.4726 123.328 74.1495 123.517C71.4 123.704 68.81 124.876 66.8538 126.817C65.7806 127.832 64.9426 129.069 64.3988 130.442C63.9758 131.549 63.7904 132.733 63.8545 133.916M77.172 163.203C78.5648 163.765 80.0019 164.21 81.4683 164.535C82.8001 164.813 84.155 165.033 85.5446 165.206C86.9343 165.38 88.4977 165.6 90.1768 165.855L89.8641 173.51L88.6482 174.737L77.172 163.203Z" fill="white"/>
<path d="M43.2645 106.262C44.9514 104.496 47.0301 103.151 49.3326 102.336C51.3669 101.616 53.5658 101.499 55.6652 101.998C57.7645 102.497 59.6752 103.592 61.1678 105.15C61.9425 105.861 62.5654 106.72 62.9993 107.677C63.4331 108.635 63.6689 109.67 63.6924 110.72C63.7247 111.682 63.5571 112.639 63.2003 113.532C62.8435 114.425 62.3052 115.234 61.6195 115.909C60.438 117.112 58.913 117.921 57.2536 118.225C56.3785 118.286 55.5003 118.16 54.6784 117.853C53.8565 117.546 53.1101 117.066 52.4897 116.446C51.8694 115.825 51.3895 115.079 51.0826 114.257C50.7756 113.435 50.6488 112.557 50.7107 111.682C50.7939 109.975 51.503 108.359 52.7025 107.142C53.3055 106.555 53.9973 106.066 54.7523 105.695C55.5416 105.285 56.3832 104.985 57.2536 104.803C58.0118 104.624 58.7922 104.557 59.5697 104.606C60.1468 104.62 60.7003 104.838 61.1331 105.22L59.7666 106.54C58.7806 105.537 57.5978 104.748 56.2925 104.224C55.072 103.739 53.7575 103.537 52.4478 103.633C51.0528 103.752 49.695 104.146 48.4525 104.791C47.0152 105.521 45.7083 106.484 44.5847 107.64C43.7074 108.412 43.058 109.409 42.7069 110.524C42.3558 111.638 42.3164 112.828 42.5928 113.963C43.4292 116.813 44.8798 119.446 46.8428 121.676C49.4396 124.836 52.1954 127.863 55.0997 130.743L73.281 148.913L66.6338 155.56L44.9437 133.812C42.7099 131.578 41.0286 128.854 40.0336 125.856C40.0336 125.694 39.9293 125.543 39.883 125.381C39.2154 123.331 38.7917 121.208 38.6207 119.058C38.4371 116.832 38.6849 114.59 39.3503 112.458C40.13 110.104 41.4738 107.977 43.2645 106.262ZM80.3219 139.15L81.6884 140.517L61.4226 160.794L60.0561 159.428L80.3219 139.15Z" fill="white"/>
<path d="M131.762 186.665C128.821 185.773 127.524 185.623 124.814 182.878C122.7 180.737 120.909 178.299 119.498 175.64C118.003 172.836 117.063 169.769 116.731 166.608C116.386 163.193 116.851 159.746 118.086 156.544C119.665 152.6 122.078 149.045 125.161 146.122C128.072 143.033 131.632 140.628 135.584 139.081C138.806 137.866 142.266 137.41 145.693 137.749C148.811 138.071 151.841 138.978 154.622 140.424C157.151 141.722 159.469 143.393 161.501 145.381C163.338 147.195 164.743 149.399 165.612 151.831C166.452 154.196 166.882 156.687 166.886 159.196C166.907 161.551 166.564 163.895 165.867 166.144C165.312 168.076 164.348 169.865 163.041 171.39L161.64 169.989C162.775 168.484 163.62 166.779 164.129 164.963C164.685 163.013 164.957 160.993 164.94 158.965C164.935 156.942 164.595 154.935 163.933 153.024C163.301 151.176 162.255 149.496 160.875 148.114C158.842 146.001 156.134 144.666 153.221 144.338C149.952 144.077 146.674 144.735 143.759 146.238C139.815 148.245 136.243 150.912 133.198 154.124C129.972 157.193 127.314 160.807 125.347 164.801C123.851 167.775 123.164 171.09 123.355 174.413C123.542 177.159 124.714 179.746 126.655 181.697C127.666 182.777 128.904 183.619 130.28 184.164C131.388 184.581 132.571 184.766 133.754 184.708M163.041 171.39C163.601 169.997 164.047 168.56 164.373 167.094C164.651 165.762 164.871 164.407 165.044 163.018C165.218 161.628 165.438 160.065 165.693 158.316L173.347 158.629L174.575 159.856L163.041 171.39Z" fill="white"/>
<path d="M106.03 205.379C104.265 203.696 102.92 201.621 102.105 199.322C101.383 197.288 101.265 195.089 101.764 192.989C102.264 190.89 103.359 188.979 104.919 187.487C105.63 186.715 106.49 186.095 107.447 185.665C108.405 185.236 109.44 185.004 110.489 184.986C111.451 184.955 112.409 185.124 113.302 185.483C114.195 185.842 115.004 186.382 115.677 187.07C116.885 188.249 117.694 189.775 117.993 191.436C118.106 192.355 117.986 193.287 117.644 194.147C117.302 195.008 116.749 195.768 116.036 196.358C115.437 196.961 114.709 197.42 113.906 197.699C113.103 197.978 112.247 198.069 111.404 197.967C109.697 197.884 108.081 197.175 106.864 195.976C106.277 195.377 105.789 194.689 105.417 193.937C105.011 193.147 104.711 192.305 104.525 191.436C104.346 190.678 104.28 189.897 104.328 189.12C104.342 188.546 104.56 187.996 104.942 187.568L106.274 188.9C105.276 189.868 104.488 191.031 103.958 192.316C103.474 193.537 103.272 194.851 103.367 196.161C103.488 197.559 103.881 198.921 104.525 200.168C105.253 201.603 106.216 202.907 107.374 204.024C108.144 204.903 109.141 205.554 110.256 205.905C111.371 206.257 112.561 206.295 113.697 206.016C116.547 205.184 119.179 203.737 121.409 201.777C124.572 199.18 127.599 196.42 130.477 193.509L148.646 175.339L155.294 181.975L133.58 203.7C131.344 205.933 128.621 207.618 125.625 208.621L125.15 208.772C123.098 209.434 120.976 209.858 118.827 210.034C116.599 210.22 114.357 209.968 112.226 209.293C109.87 208.519 107.742 207.174 106.03 205.379ZM138.919 168.322L140.285 166.955L160.563 187.232L159.196 188.587L138.919 168.322Z" fill="white"/>
<path d="M115.26 63.6113C118.201 64.503 119.498 64.6535 122.208 67.3981C124.323 69.5394 126.113 71.9776 127.524 74.6359C129.018 77.4411 129.957 80.5079 130.291 83.6686C130.636 87.0829 130.172 90.5304 128.937 93.732C127.361 97.6776 124.946 101.234 121.861 104.154C118.95 107.243 115.391 109.648 111.438 111.195C108.216 112.41 104.756 112.866 101.329 112.527C98.2107 112.206 95.1814 111.298 92.4003 109.852C89.8692 108.558 87.5498 106.887 85.5215 104.896C83.7076 103.071 82.3265 100.863 81.4799 98.4337C80.6412 96.0725 80.2104 93.5858 80.2061 91.0801C80.1845 88.7252 80.5283 86.3813 81.2251 84.1318C81.7797 82.2007 82.7434 80.4115 84.0508 78.8859L85.452 80.2871C84.3133 81.7951 83.4686 83.5041 82.9622 85.3246C82.4063 87.2711 82.1333 89.2875 82.1516 91.3117C82.1566 93.334 82.497 95.3415 83.1591 97.2525C83.9578 99.5546 85.384 101.588 87.2768 103.122C89.1695 104.657 91.4535 105.632 93.871 105.938C97.1404 106.205 100.419 105.547 103.332 104.039C107.279 102.02 110.851 99.3414 113.894 96.1176C117.119 93.0489 119.777 89.4342 121.745 85.4404C123.24 82.4666 123.927 79.1518 123.737 75.8287C123.555 73.0743 122.383 70.4787 120.436 68.5214C119.43 67.4246 118.192 66.5661 116.812 66.0085C115.703 65.5911 114.521 65.4058 113.338 65.4642M84.0508 78.828C83.4887 80.2248 83.0433 81.6656 82.719 83.1359C82.4411 84.4561 82.2211 85.811 82.0473 87.2006C81.8736 88.5903 81.6536 90.1536 81.3988 91.9023L73.7442 91.5896L72.5167 90.3274L84.0508 78.828Z" fill="white"/>
<path d="M140.992 44.8973C142.759 46.579 144.104 48.6542 144.917 50.9539C145.638 52.9863 145.755 55.1835 145.256 57.2812C144.757 59.3789 143.662 61.2875 142.103 62.7775C141.392 63.5495 140.532 64.1692 139.575 64.5992C138.617 65.0291 137.583 65.2604 136.533 65.2789C135.571 65.3097 134.613 65.1403 133.72 64.7815C132.827 64.4227 132.018 63.8822 131.345 63.1944C130.138 62.0157 129.328 60.4895 129.029 58.8286C128.916 57.9099 129.036 56.9774 129.378 56.1173C129.72 55.2571 130.273 54.497 130.986 53.9069C131.585 53.3037 132.313 52.8451 133.116 52.5661C133.919 52.2872 134.775 52.1952 135.618 52.2972C137.314 52.3919 138.917 53.1046 140.123 54.3006C140.71 54.8994 141.199 55.5873 141.571 56.3388C141.977 57.1297 142.277 57.9708 142.462 58.8402C142.64 59.5985 142.707 60.3788 142.659 61.1563C142.645 61.7299 142.428 62.2799 142.046 62.708L140.702 61.3763C141.7 60.4079 142.488 59.2452 143.018 57.9601C143.502 56.7392 143.704 55.425 143.609 54.1153C143.488 52.7169 143.095 51.3557 142.451 50.1085C141.721 48.7011 140.767 47.4221 139.625 46.3217C138.855 45.4423 137.858 44.7915 136.743 44.4402C135.628 44.089 134.438 44.0508 133.302 44.3299C130.452 45.1614 127.82 46.6082 125.59 48.5683C122.429 51.136 119.402 53.8649 116.522 56.7441L98.3526 74.9485L91.7054 68.3245L113.488 46.5765C115.715 44.3619 118.421 42.6897 121.398 41.6895L121.872 41.539C123.925 40.8807 126.047 40.4611 128.195 40.2883C130.422 40.0988 132.665 40.3467 134.796 41.0179C137.149 41.7824 139.277 43.1148 140.992 44.8973ZM108.103 81.9547L106.737 83.3791L86.4595 63.067L87.826 61.7121L108.103 81.9547Z" fill="white"/>
<path d="M236.09 117.507L243.004 124.42L245.922 127.338L248.84 124.42L133.163 8.74323L130.245 11.6499" fill="white"/>
<path d="M146.55 220.874L124.42 243.004L121.502 245.922L124.42 248.84L240.097 133.163L237.179 130.245" fill="white"/>
<path d="M2.91827 121.502L0 124.42L115.677 240.097L118.595 237.179" fill="white"/>
<path d="M8.74323 115.677L11.6615 118.595L120.483 9.77388H120.471L127.327 2.91827L124.42 0" fill="white"/>
<path d="M27.9088 359.746C27.5699 359.997 27.2049 360.21 26.8203 360.383C26.2509 360.65 25.6577 360.863 25.0485 361.02C24.3137 361.2 23.5582 361.282 22.8019 361.263C21.5815 361.267 20.3727 361.027 19.2467 360.557C18.2348 360.123 17.3239 359.484 16.5716 358.681C15.831 357.903 15.2524 356.986 14.8693 355.982C14.4609 354.939 14.2564 353.826 14.2671 352.705C14.2618 351.52 14.4697 350.343 14.8809 349.231C15.255 348.187 15.8427 347.233 16.6063 346.429C17.3548 345.642 18.2576 345.019 19.2583 344.599C20.331 344.16 21.4807 343.939 22.6397 343.95C23.6103 343.935 24.5767 344.08 25.5001 344.379C26.2494 344.62 26.9653 344.955 27.6309 345.375L26.5539 347.911C26.0494 347.54 25.501 347.233 24.9211 346.996C24.2231 346.695 23.4693 346.545 22.7092 346.556C21.9735 346.552 21.246 346.71 20.5784 347.019C19.9015 347.32 19.2913 347.753 18.7835 348.293C18.2564 348.857 17.8365 349.512 17.5444 350.227C17.2403 350.981 17.0869 351.788 17.0927 352.601C17.0877 353.429 17.2248 354.251 17.498 355.033C17.7494 355.753 18.1433 356.414 18.6561 356.978C19.1567 357.528 19.7739 357.96 20.4626 358.241C21.2155 358.548 22.0235 358.698 22.8366 358.681C24.2594 358.714 25.6486 358.246 26.7624 357.36L27.9088 359.746Z" fill="white"/>
<path d="M44.492 361.078L52.0193 343.395H52.1814L59.6971 361.078H56.5936L51.2781 347.645L53.27 346.359L47.1671 361.078H44.492ZM49.2516 354.778H55.0418L55.9798 357.094H48.4062L49.2516 354.778Z" fill="white"/>
<path d="M74.7864 344.101H86.1468V346.707H81.7578V361.078H79.048V346.707H74.7864V344.101Z" fill="white"/>
<path d="M104.374 344.101H115.642V346.707H107.107V351.234H114.704V353.852H107.107V358.484H115.966V361.101H104.386L104.374 344.101Z" fill="white"/>
<path d="M139.289 344.101C140.153 344.093 141.012 344.218 141.837 344.471C142.56 344.694 143.233 345.056 143.817 345.537C144.374 345.988 144.811 346.569 145.091 347.228C145.4 347.96 145.55 348.749 145.531 349.544C145.534 350.223 145.433 350.899 145.23 351.547C145.031 352.214 144.696 352.833 144.246 353.365C143.752 353.934 143.134 354.382 142.439 354.674C141.563 355.021 140.625 355.187 139.683 355.16H137.205V361.066H134.484V344.101H139.289ZM139.637 352.543C140.149 352.558 140.658 352.463 141.131 352.265C141.503 352.104 141.829 351.853 142.08 351.536C142.308 351.258 142.48 350.939 142.59 350.598C142.682 350.289 142.733 349.97 142.74 349.648C142.735 349.338 142.688 349.03 142.601 348.733C142.501 348.382 142.336 348.052 142.115 347.76C141.881 347.434 141.565 347.175 141.2 347.008C140.74 346.794 140.236 346.691 139.729 346.707H137.205V352.497L139.637 352.543ZM142.578 354.199L146.909 361.078H143.736L139.336 354.269L142.578 354.199Z" fill="white"/>
<path d="M164.871 344.101H167.592V361.078H164.871V344.101Z" fill="white"/>
<path d="M201.94 361.68L188.912 349.046L189.722 349.37V361.078H187.024V343.522H187.163L199.901 356.156L199.299 355.971V344.101H202.009V361.68H201.94Z" fill="white"/>
<path d="M234.99 359.514C234.679 359.751 234.345 359.956 233.994 360.128C233.541 360.359 233.068 360.549 232.581 360.696C232.037 360.858 231.493 360.985 230.937 361.101C230.422 361.202 229.899 361.256 229.374 361.263C228.103 361.284 226.839 361.072 225.645 360.638C224.608 360.243 223.657 359.653 222.842 358.901C222.066 358.164 221.455 357.273 221.047 356.283C220.616 355.229 220.4 354.099 220.41 352.96C220.387 351.632 220.631 350.312 221.128 349.08C221.566 348.018 222.217 347.057 223.039 346.255C223.838 345.493 224.783 344.901 225.818 344.518C226.883 344.13 228.009 343.934 229.142 343.939C230.103 343.931 231.06 344.048 231.991 344.286C232.795 344.486 233.573 344.782 234.307 345.166L233.392 347.691C233.03 347.474 232.64 347.307 232.234 347.193C231.77 347.04 231.299 346.912 230.821 346.811C230.387 346.718 229.945 346.668 229.501 346.66C228.611 346.647 227.726 346.788 226.884 347.077C226.145 347.318 225.47 347.724 224.91 348.263C224.351 348.803 223.921 349.462 223.653 350.192C223.355 351.012 223.21 351.879 223.224 352.751C223.21 353.574 223.368 354.391 223.688 355.149C223.985 355.841 224.418 356.468 224.961 356.99C225.516 357.515 226.181 357.911 226.907 358.148C227.718 358.43 228.573 358.568 229.431 358.553C229.948 358.554 230.464 358.507 230.972 358.414C231.418 358.34 231.849 358.191 232.246 357.974V355.149H229.049V352.52H235.002L234.99 359.514Z" fill="white"/>
</g>
<defs>
<clipPath id="clip0_46_78">
<rect width="248.84" height="361.68" fill="white"/>
</clipPath>
</defs>
</svg>
