<svg width="25" height="25" viewBox="0 0 25 25" fill="none" xmlns="http://www.w3.org/2000/svg">
<path d="M23.3127 6.71279C23.1939 6.2382 22.9519 5.80336 22.6113 5.45219C22.2707 5.10103 21.8434 4.84597 21.3727 4.71279C19.6527 4.29279 12.7727 4.29279 12.7727 4.29279C12.7727 4.29279 5.89265 4.29279 4.17265 4.75279C3.7019 4.88597 3.27463 5.14103 2.934 5.49219C2.59337 5.84336 2.35144 6.2782 2.23265 6.75279C1.91787 8.49834 1.76389 10.2691 1.77265 12.0428C1.76143 13.8298 1.91542 15.6141 2.23265 17.3728C2.36361 17.8326 2.61096 18.2509 2.9508 18.5873C3.29063 18.9236 3.71147 19.1666 4.17265 19.2928C5.89265 19.7528 12.7727 19.7528 12.7727 19.7528C12.7727 19.7528 19.6527 19.7528 21.3727 19.2928C21.8434 19.1596 22.2707 18.9045 22.6113 18.5534C22.9519 18.2022 23.1939 17.7674 23.3127 17.2928C23.625 15.5604 23.779 13.8031 23.7727 12.0428C23.7839 10.2557 23.6299 8.47148 23.3127 6.71279Z" fill="#1E1E1E"/>
<path d="M10.5226 15.3128L16.2726 12.0428L10.5226 8.7728V15.3128Z" fill="white"/>
</svg>
